<?xml version="1.0" encoding="UTF-8"?>
<svg xmlns="http://www.w3.org/2000/svg" viewBox="0 0 695.3 561.6">
  <defs>
    <!-- Light variant: letterforms lifted to ~#bbb range for dark backgrounds -->
    <linearGradient id="darkLetterGrad" gradientUnits="userSpaceOnUse" x1="0" y1="0" x2="0" y2="561.6">
      <stop offset="0" stop-color="#c8c8c8"/>
      <stop offset="1" stop-color="#a8a8a8"/>
    </linearGradient>
    <!-- Stronger diagonal gradient for gold swoosh: deeper bronze at horn opening, brighter gold at curve base -->
    <linearGradient id="goldSwooshGrad" gradientUnits="userSpaceOnUse" x1="695.3" y1="0" x2="0" y2="561.6">
      <stop offset="0" stop-color="#8d4f06"/>
      <stop offset="0.45" stop-color="#c98215"/>
      <stop offset="1" stop-color="#ffd85a"/>
    </linearGradient>
  </defs>
  <path d="M143.8,188.1l68.5,29,55.4,22.5c-32.2,11.8-62.9,23.4-93,38.7-34.8-13.7-70.1-28.6-98-53.7-37.3-33.1-47.5-82.3-20.8-125.1,10.4-16.6,23.4-30,39.4-41.7,30.5-22.4,66.1-35.3,103.8-39.8,44.4-5.3,88.7-.2,130.2,17.3v77.6c-2.7.2-5.1.3-7.4-.1.4-37.6-22.5-60.7-56.9-71.7s-73.9-9.3-107.8,5.6c-28.9,12.8-54.7,36.7-61.5,67.7-5.1,22.9,3.5,45.3,22.3,58.9,8.1,5.9,16.1,10.6,25.8,14.8Z" id="path6" fill="url(#darkLetterGrad)" />
  <g id="g12">
    <path d="M562.6,231.1c.7.7,1.2,1.3,1.4,2.3,1.1,9.7,6.6,21.6,12.3,21.6s10.4-9.4,11.5-15.4l5-28.1c.2-1,.5-1.7,1-1.7l-.3,10v279.6c0,12.1,5.5,22.8,13.5,30.9s15.6,11,24.8,14.3.4,2.9-.2,2.9h-133.5c-.7,0-1-2.6-.2-2.9,22.7-8.1,36.4-23.4,36.4-48.3v-231.4c14.3,1.1,27.6-8.8,28.1-23.3l.3-10.5Z" id="path8" fill="url(#darkLetterGrad)" />
    <path d="m 593.7,211.89728 c -0.5,0 -0.8,0.707 -1,1.717 l -5,28.3809 c -1.1,6.05998 -7,15.55395 -11.5,15.55395 -4.5,0 -11.2,-12.01896 -12.3,-21.81593 -0.1,-1.00999 -0.7,-1.61599 -1.4,-2.32299 l -0.3,-55.34781 -3.3,-58.37781 C 556.8,102.61565 553.5,86.556707 547.1,70.90176 540.5,53.832818 530.9,39.894865 516.8,25.956912 578.3,28.784903 636.8,20.70493 695.2,0 l -39,47.671839 c -35.6,47.974837 -58,104.433641 -62.6,164.225441 z" id="path10" fill="url(#goldSwooshGrad)" stroke-width="1.00499" />
  </g>
  <path d="M532.9,252.7c-7.7-1.4-12.6-7.9-12.7-14.8s5.1-13.8,12.7-15.2,18.6,5.5,18.5,15.1c0,9.1-8.2,16.8-18.5,14.9Z" id="path14" fill="url(#goldSwooshGrad)" />
  <path d="M 110.40618,527.30846 C 105.50618,523.60846 99,514.9 95.8,508.6 75.3,468.2 93.7,424 120.8,390.2 l 7.1,4.4 C 106.1,422 88,459.3 100.2,493 c 11.3,31.3 43.7,41.9 75.8,39.1 37,-3.3 71.9,-19.7 98.2,-45.9 48.4,-48.4 48.6,-123.9 -5.4,-166.9 24.9,-12.2 48.7,-21.7 73.6,-29.9 l 10,15.6 c 18.8,30.1 24.7,65.2 17.6,100.1 -10.5,51.5 -49.2,93 -94,118.9 -58.2,33.6 -126.5,45.1 -192.6,33 -23.1,-4.2 -49.5,-14.7 -64.9,-32.1 -25.9,-29.1 -1.2,-74.7 22.4,-101.6 -12.4,29.8 -3.4,61.6 21.8,81.9 24.6,19.5 31.7,20 47.1,20.1 z" id="path16" fill="url(#darkLetterGrad)" />
  <g id="g24">
    <path d="M48.5,399.2c-21.2,20-39.8,45-48.5,73.5,1.9-33.7,24.1-64.7,47.9-89,9.5-9.7,18.6-18.3,29.3-26.9,59.7-47.8,124.1-79.1,195.9-104.9l101.8-33.2c40.3-13.1,83.1-25.5,117.6-50.5,21.5-15.7,36.7-37.6,42.4-63.7,2.3-10.5,1.4-20.3,1.1-31.2l7.1,24.9c7.4,26-10.7,55-30.5,73.1-14.3,13.1-30.5,22.7-48.1,30.8s-36.8,15.4-56.4,21.5l-77.2,24c-28.7,8.9-56,18.7-84.1,29.9-72.2,28.8-141.6,68.3-198.3,121.7Z" id="path18" fill="url(#goldSwooshGrad)" />
    <path d="M234.1,313.3c-28,13.7-53.5,30.1-77.4,49.3-1.9-1.8-3.4-3.7-5-6.2,26.1-21,54.2-38.8,84.7-53.3,86.5-41.2,180.3-64.8,276-69.2v7.9c-96.5,4.8-191,28.7-278.3,71.4Z" id="path20" fill="url(#darkLetterGrad)" />
    <path d="M131.8,358.1c8.8-2.7,16.7,2.8,18.9,10.9s-2.5,15.8-10,18c-8.1,2.5-16.5-1.9-19-9.8-2.3-7.6,1.3-16.5,10-19.1Z" id="path22" fill="url(#goldSwooshGrad)" />
  </g>
</svg>
