<?xml version="1.0" encoding="utf-8"?>
<!-- Generator: Adobe Illustrator 12.0.1, SVG Export Plug-In . SVG Version: 6.00 Build 51448)  -->
<!DOCTYPE svg PUBLIC "-//W3C//DTD SVG 1.1//EN" "http://www.w3.org/Graphics/SVG/1.1/DTD/svg11.dtd" [
	<!ENTITY ns_flows "http://ns.adobe.com/Flows/1.0/">
	<!ENTITY ns_extend "http://ns.adobe.com/Extensibility/1.0/">
	<!ENTITY ns_ai "http://ns.adobe.com/AdobeIllustrator/10.0/">
	<!ENTITY ns_graphs "http://ns.adobe.com/Graphs/1.0/">
	<!ENTITY ns_vars "http://ns.adobe.com/Variables/1.0/">
	<!ENTITY ns_imrep "http://ns.adobe.com/ImageReplacement/1.0/">
	<!ENTITY ns_sfw "http://ns.adobe.com/SaveForWeb/1.0/">
	<!ENTITY ns_custom "http://ns.adobe.com/GenericCustomNamespace/1.0/">
	<!ENTITY ns_adobe_xpath "http://ns.adobe.com/XPath/1.0/">
	<!ENTITY ns_svg "http://www.w3.org/2000/svg">
	<!ENTITY ns_xlink "http://www.w3.org/1999/xlink">
]>
<svg  version="1.1"
	 xmlns:x="&ns_extend;" xmlns:i="&ns_ai;" xmlns:graph="&ns_graphs;" i:viewOrigin="146 414" i:rulerOrigin="-146 -198" i:pageBounds="146 414 646 198"
	 xmlns="&ns_svg;" xmlns:xlink="&ns_xlink;" xmlns:a="http://ns.adobe.com/AdobeSVGViewerExtensions/3.0/" width="500" height="216"
	 viewBox="0 0 500 216" overflow="visible" enable-background="new 0 0 500 216" xml:space="preserve">
<metadata><?xpacket begin="﻿" id="W5M0MpCehiHzreSzNTczkc9d"?>
<x:xmpmeta xmlns:x="adobe:ns:meta/" x:xmptk="3.1.1-111">
   <rdf:RDF xmlns:rdf="http://www.w3.org/1999/02/22-rdf-syntax-ns#">
      <rdf:Description rdf:about=""
            xmlns:dc="http://purl.org/dc/elements/1.1/">
         <dc:format>image/svg+xml</dc:format>
      </rdf:Description>
      <rdf:Description rdf:about=""
            xmlns:xap="http://ns.adobe.com/xap/1.0/"
            xmlns:xapGImg="http://ns.adobe.com/xap/1.0/g/img/">
         <xap:CreatorTool>Adobe Illustrator CS2</xap:CreatorTool>
         <xap:CreateDate>2007-03-07T22:44:51-07:00</xap:CreateDate>
         <xap:ModifyDate>2007-03-07T22:44:51-07:00</xap:ModifyDate>
         <xap:MetadataDate>2007-03-07T22:44:51-07:00</xap:MetadataDate>
         <xap:Thumbnails>
            <rdf:Alt>
               <rdf:li rdf:parseType="Resource">
                  <xapGImg:width>256</xapGImg:width>
                  <xapGImg:height>76</xapGImg:height>
                  <xapGImg:format>JPEG</xapGImg:format>
                  <xapGImg:image>/9j/4AAQSkZJRgABAgEASABIAAD/7QAsUGhvdG9zaG9wIDMuMAA4QklNA+0AAAAAABAASAAAAAEA&#xA;AQBIAAAAAQAB/+4ADkFkb2JlAGTAAAAAAf/bAIQABgQEBAUEBgUFBgkGBQYJCwgGBggLDAoKCwoK&#xA;DBAMDAwMDAwQDA4PEA8ODBMTFBQTExwbGxscHx8fHx8fHx8fHwEHBwcNDA0YEBAYGhURFRofHx8f&#xA;Hx8fHx8fHx8fHx8fHx8fHx8fHx8fHx8fHx8fHx8fHx8fHx8fHx8fHx8fHx8f/8AAEQgATAEAAwER&#xA;AAIRAQMRAf/EAaIAAAAHAQEBAQEAAAAAAAAAAAQFAwIGAQAHCAkKCwEAAgIDAQEBAQEAAAAAAAAA&#xA;AQACAwQFBgcICQoLEAACAQMDAgQCBgcDBAIGAnMBAgMRBAAFIRIxQVEGE2EicYEUMpGhBxWxQiPB&#xA;UtHhMxZi8CRygvElQzRTkqKyY3PCNUQnk6OzNhdUZHTD0uIIJoMJChgZhJRFRqS0VtNVKBry4/PE&#xA;1OT0ZXWFlaW1xdXl9WZ2hpamtsbW5vY3R1dnd4eXp7fH1+f3OEhYaHiImKi4yNjo+Ck5SVlpeYmZ&#xA;qbnJ2en5KjpKWmp6ipqqusra6voRAAICAQIDBQUEBQYECAMDbQEAAhEDBCESMUEFURNhIgZxgZEy&#xA;obHwFMHR4SNCFVJicvEzJDRDghaSUyWiY7LCB3PSNeJEgxdUkwgJChgZJjZFGidkdFU38qOzwygp&#xA;0+PzhJSktMTU5PRldYWVpbXF1eX1RlZmdoaWprbG1ub2R1dnd4eXp7fH1+f3OEhYaHiImKi4yNjo&#xA;+DlJWWl5iZmpucnZ6fkqOkpaanqKmqq6ytrq+v/aAAwDAQACEQMRAD8A6B5e8vaA2gaYzaZaszWs&#xA;BZjBGSSY13Pw5v4QFDZ0kpGzumH+HPL3/VrtP+REX/NOS4I9zHjPe7/Dnl7/AKtdp/yIi/5px4I9&#xA;y8Z73f4c8vf9Wu0/5ERf8048Ee5eM97v8OeXv+rXaf8AIiL/AJpx4I9y8Z70v8w+XtAXQNTZdMtV&#xA;ZbWcqwgjBBEbbj4cjOAo7MoyNjdPvO9lZXbeWUureO4RbC5KrKiuAf8ARBUBgcwezQDM33OfrSRE&#xA;e9IP8P6B/wBW21/5ER/805uPDj3B1vGe93+H9A/6ttr/AMiI/wDmnHw49wXjPetPl/QfVX/cba/Z&#xA;b/dEfiP8nD4ce4LxnvXf4f0D/q22v/IiP/mnB4ce4Lxnvd/h/QP+rba/8iI/+acfDj3BeM96f+QN&#xA;PsLPzYPqltFb87C45+kipypNb0rxArSuavtKIHDXm5+iJN2wHR9E0V9JsnewtmdreIsxhjJJKCpJ&#xA;pm6xY48A2HIOLORs7oo6DofIf7jrbof90x+3tlnhR7gw4z3t/oHQ/wDq3Wv/ACJj/pj4Ue4LxnvW&#xA;Q6FofpJ/uOtvsj/dMfh8sTij3BRM9646DofIf7jrbof90x+3tj4Ue4LxnvUb7QtEFlcEafbAiN6H&#xA;0Y/5T7ZGWKNHYJEjfNHfmJa2txY/l8txCkyjRbohZFDgHjp+9CDmq7DgJZZWL9P6Q52tJEB72KjS&#xA;NHqf9Bg6/wC+U8PlnUeBD+aPkHV8Z71q6Ro/pr/oMHb/AHSn9MfAh/NHyC8Z73HSNH9Vf9Bg+yf9&#xA;0p4j2x8CH80fILxnvXDSNHqf9Bg6/wC+U8Plj4EP5o+QXjPetXSNH9Nf9Bg7f7pT+mPgQ/mj5BeM&#xA;97NPyrtLS31LXxbQJCG0s8hGgStGbrQDOc7egI8NCnY6GRN28i03TdOOnWhNpCSYYiSYl/lHtnXY&#xA;MGPw4+kch0Hc4E5y4juiDpem1/3kh6H/AHUv9Mt/L4/5sfkGPHLvc+mabxb/AESHv/upfD5Y/l8f&#xA;82PyCmcu9v8ARemV/wB5Iev++l8Plj+Xx/zY/ILxy72hpem1/wB5Ieg/3Uv9Mfy+P+bH5BeOXeh9&#xA;S03Thp12RaQgiGUgiJf5T7ZVnwY/Dl6RyPQdzKE5cQ3e5+XP+Ue0v/mEg/5NLnIw+kMp8ymOSYux&#xA;V2KuxVLvMf8Ayj2qf8wk/wDyabIz+ksocwmvm3+88tf9s+5/XaZgdmfWfc7DXfSPelObp1jsVWH+&#xA;9X/Vb9Yx6KvxV2Kpt5L/AOUsT/mAuf8Ak9bZqu1P4fj+h2Gh6sF0Uv8Aoaw2H+88Xf8AyB7Zu8P0&#xA;D3BxJ/UUYS/MbDoe/wAvbLWDdX8B9/8AZiqyEv6KbD7I7+3yxKhcS/MbDoe/y9sVUb8v9RuNh/dP&#xA;3/yT7ZGXIpHNW8+V+p/l/Qf9KS6/4jp+ajsL++l/V/SHP130D3sbBep2HXx9vlnVOqWqX9Ndh27/&#xA;ANmFXEv6q7D7Ld/ce2BVwL1Ow6+Pt8sVWqX9Ndh27/2YVZf+WfL9J69UAf7ij0P+W2cz7Qfw/F2W&#xA;g6vJNLJ/Rtp0/uYu/wDkjOx0/wDdx/qj7nXz+ookk17dD3y5g05PFunQ9/bFSuqa9uvj7YpaBNe3&#xA;Qd8UIbVCf0bd9P7mXv8A5JynUf3cv6p+5nD6g9r8uf8AKPaX/wAwkH/Jpc4yH0hsnzKY5Ji7FXYq&#xA;7FUu8x/8o9qn/MJP/wAmmyM/pLKHMJr5t/vPLX/bPuf12mYHZn1n3Ow130j3pTm6dY7FVh/vV/1W&#xA;/WMeir8VdiqbeS/+UsT/AJgLn/k9bZqu1P4fj+h2Gh6sH0X/AI41h/zDxf8AEBm7w/QPcHEn9RRZ&#xA;+2Pkf4ZawbwJWQ/3Kf6o/VhKAuP2x8j/AAxVRv8A/eG4/wCMT/8AETkJciyHNV8+f7x/l/vT/cJd&#xA;f8R0/NT2F/fS/q/pDna76B72OAGp3PX28M6p1S1QfTXc9vDCriD6q7n7LeHiMCrgDU7nr7eGKrVB&#xA;9Ndz28MKsu/LMf7k9e3r/uKP/E2zmfaD+H4uy0HV5Lpdf0Zadf7mLw/lGdjp/wC7j/VH3Ovn9RRJ&#xA;rXv0PhlzFp68G69/DwxUrt69+vt4Yq0K179B4YqhtUr+jLvr/cy+H8pynUf3cv6p+5lD6g9q8uf8&#xA;o9pf/MJB/wAmlzjIfSGyfMpjkmLsVaZlVSzEBQKknYADFKLt/KUdx5ZXUV+sHzDPA19bQtczRjkT&#xA;6sUDwc/RoFKxP8Hv13zTnVS47va3aDTR4arekg1yeK48r6hPCweGWxmeNx0KtESD9IzayNxPudbE&#xA;VJOPNyq0nlrkAf8Acfc9d+9pmD2Z9Z9zn676R70n9GL+RfuGbqy6x3oxfyL9wxsqtMUXqr8C/Zbs&#xA;PEYbQvstD07Uh5ikull5afp0U1p6U00ISR/rRLEROgb+6X7VemarXZ5xmBE1s7DSYoyiSQ16MX8i&#xA;/cM2llwE48koi+bU4qB/oFz0FP8Ad1tmq7UP0/H9Dn6HqwXRYYv0PYfAv+88XYfyDN5hPoHuDizH&#xA;qKLMMPMfAvQ9h7ZZbCm/Rh/kX7hja0qaJptnqGuaJp1wh+q3kzpcKhMbMqWk0oHNKMvxxr9kg5hd&#xA;o5pQxkxNG2/TQEpUU31C0/LCw1ifTrjStRhW0fhNqf1uZreP4FcsQ100hVeQrWIj6N81MJaow8QS&#xA;JHv/AEOZIYgeEjdLPNvl1tCnubB2+sQPbNNaXLqgdloysjhAq8kIFSFAIYe+bHRayWWB4vqDjZ8I&#xA;hIVyKH8/Kpsvy/BXkP0Jdbbfy6f45R2D/fS/q/pDdrvoHvY0I46n92OvgPDOrdU0scfpr+7HbsMU&#xA;OMcfqr+7H2W7DxGKU+1ryvomm+WvK+pWkDreanYrNfO800od2ihctwld0X4nP2QM5zsjV5cmaQlI&#xA;kV+kOw1eKMYAgKPk7QNK1rzDYafqMDSWknqM6RySQklIXZfjhZH6ivXM7tjPPHiBgaPF+tp0cIyl&#xA;RHRPPy+s7ez8y+b7S3UrBbQXkEIZmciOK7lRFLuWZqKoFSa5odfklPBjlI2Tf3udgiIzkA8g0xF/&#xA;Rtp8P+6Yuw/lGd9p/wC7j/VH3OpmPUUQUWv2R0PYZcwpzovFvh8ew8MVIb4JX7PfwHhimnqvkr8p&#xA;PLeteSo77Uo3XWtUimmsZxPMgijPw28ixRyJG604y/Ep+1Q7ZwvaHa+YaiXBIiANfL9btsOlhwCx&#xA;u8h1SGRNOvY54fRuI4pkmhNCUkQFXQ07qwIOdfLKMmAzHKUb+x1ohwzrze1+XP8AlHtL/wCYSD/k&#xA;0ucjD6QynzKY5Ji7FVGa1+vTWul8eS6jMtvKDWno0MlxUj7NYI3Cn+amUamfDAt+nhxTDIpbTzCf&#xA;P6amtnJ+jUj+oGUyxGM27R+u0yx8w4f6xxQ/D9lffNR6eD+lbtPVx/0aYj5otGsLDzFpx2S3iuXt&#xA;tgB9XmiaSMKo6LHyMQ/1M2ennxYvc6/PDhye9NvNv955a/7Z9z+u0ynsz6z7m/XfSPelObp1jsVW&#xA;H+9X/Vb9Yx6KmGgf3Xm7/tlQfqvc0vaX94Pc7PRfQfegs3TrE28l/wDKWJ/zAXP/ACets1Xan8Px&#xA;/Q7DQ9WC6KH/AENYbj/eeLt/kD3zd4foHuDiT+oowh+Y3HQ9vl75awbo/iPu/txVF+U+X+LfLdSP&#xA;96Ju3/avuc13av8AdH3uTo/rTvzR5Psp9V1G51TXLLT9JvX/ANJ9VgsvB41R4wWdFRiq7Nv/AKua&#xA;vFrpRxeHEb97lz04M+IlJ/PWuxa5e3FzagiwtbV4LaR1KtIzVaVwpowTZVXkAdiehGZ/Z2mljhIy&#xA;2tx9TlEpADogPPlfqf5f0P8A0pLr/iOn5DsL++l/V/SGzXfQPexsB6ncdfD2+edU6paof013Hbt/&#xA;bhVxD+qu4+y3b3HvgV6RqcPlKTyH5PPmG/u7Djp8H1Z7KJpmatvFzDKsFzQfZ3oM4bRzzRyHwfq/&#xA;Q7zMIGI4+S3yHbfl2nmO2bR9Y1K91BUk+rwXdu8MZ+AhjyNrbioSu3LLtdk1UofvR6b7hzYYI4gf&#xA;RzQXkuv+MPO3hx1D/qNmyOq/xfF8fvTi/vJfB41pYP6NtOn9zF2/yRnoOn/u4/1R9zp5/UUSQa9u&#xA;h7ZcwacHi3Toe3tipRWnabcapqVppluSs19PHbo6rUp6rBTJ8kUlj7DMPX6jwcEp9w+3o24YcUwH&#xA;uGuaT5sh8/eWptF0tm8t6LCLYmOaCNAlz+5mBR5FdlhjSJ1+HqKDPPsXg+DPiP7zbh/S7qXFxCvp&#xA;eWfnVon6K8zax6ahbfUbdr+EBdgZVZZhXuxmRnP+sM6fsTU8eklA84X8j+C6/VQrID3ss8veYdAX&#xA;QNMVtTtVZbWAMpnjBBEa7H4s1UJihu0yibOyYf4j8vf9XS0/5Hxf81ZLjj3seA9zv8R+Xv8Aq6Wn&#xA;/I+L/mrHjj3rwHuTTy5qmmxjV/NDTJPpuiWci+tC6upcgT3C9acljii4/wCsRmt1uSyIh2GjhQJL&#xA;Hv01ZvbcpPNLLqLJV501OX0hORUusPrenx57hOPGm1KZkDT4qra2jx8l+SZef9StbzylbeaFKRQa&#xA;nps1rdlWDKspheWJWk+yFjcTR+7MBmJpp8JlE9zk6iPEBIInzve2Vo3ll7q4jt0awuQrSuqAn/RD&#xA;QFiMt7NIEzfcjWgmI96Qf4g0D/q5Wv8AyPj/AOas3HiR7w63gPc7/EGgf9XK1/5Hx/8ANWPiR7wv&#xA;Ae5afMGg+qv+5K1+y3+74/Ef5WHxI94XgPcyHyK1rrE/ma3s7mKUT2FrB6sbCRVZzdjfiT05VzTd&#xA;oyBmK7nZaMERPvRv+CfMXjZ/8jpf+qOXfyp/R+39jX+R80r/ACz1e01PzBbzwyxNI2mTPPDHIshi&#xA;aSS2PFiKdNxuBlfaGQSjEj8cmWkgYmQYRo+t6Kmk2SPf2yutvEGUzRgghBUEVzeYskeAbjkHEnE2&#xA;dkUde0PkP9yNt0P+7o/b3yzxY94YcB7m/wBPaH/1cbX/AJHR/wBcfFj3heA9yP8AJmqaZcecfLcV&#xA;vdwzS+vMfTjkRmoNPua7Ak5gdqTicRo9XJ0kSJu80ajo9t5x1oT3VvBcfWPjDyIj09GKlakHD2dO&#xA;IwiyEakEzKU32u6IbK4A1C2JMb0HrR/yn3zMlljR3DQIm+SO/MS6tbex/L5riZIVOi3QDSMEBPHT&#xA;9qkjNV2HMRyys16f0hztaCYD3sVGr6PU/wCnQdf9/J4fPOo8eH84fMOr4D3LV1fR/TX/AE6Dt/u5&#xA;P64+PD+cPmF4D3OOr6P6q/6dB9k/7uTxHvj48P5w+YXgPcznznc2sHkXyNJPMkMZ06MB3YKCTbwG&#xA;lSRnL9izEc0iTXp/SHZ60EwHvQP5WX1hcec9OS3uYpnCzEqkiuQPQcVoCc2HbmSMsIog+r9bRoYk&#xA;T37k28kSwv5z88okitJGt+JEBBKk3sxFR2zS6qQOnxD3/e5mIfvJPFdN1LThp1oDdwgiGIEGVf5R&#xA;753uDPj8OPqHIdR3OpnCXEdkQdU02v8AvXD0P+7V/rlv5jH/ADo/MMeCXc59T03i3+lw9/8Adq+H&#xA;zx/MY/50fmFMJdz0b8kbG0vvM11rTSI1lodu0hnDAqs9wrIDy6fDCsvLwqM5n2j1cTGOOJu9z+hz&#xA;9DiIJkWJ6h+ZWq6jqF1fJ5iuraK6leaG2jv5YlijkclIwiSKo4IQuw7ZlaXszRjFHj4TOt/V+1ry&#xA;ajLxGuTMvzJuI/NH5M6X5vEizXWnxSW9/cAih51trgrTs1zEjD/JzRaHJ+X1E4E+kiUf1OXljxwB&#xA;67MI0H81/wA3td+sNo2kWWoiyVZLlIbCNyqtWlQvxb8T0zSOW9b/ACX/ADG0vz7YXUF9pVra61pw&#xA;Q3KxRr6MschIWSMNyYUK0YH2332VelfonSv+WKD/AJFJ/TFVRbKzSFoFgjWFzVogihSfdaU7Yqp/&#xA;onSv+WKD/kUn9MVVTZ2hgFuYIzAOkXFeHWv2aU64q6a0tZwonhjlCfZDqGA+VRirxbyD561bW/zg&#xA;1/ytfW1k2k6dJfrbKltGsgFtciKOr03+Hrir2T9E6V/yxQf8ik/pirv0TpX/ACxQf8ik/piqrBaW&#xA;tvy+rwxw8qcvTULWnStBiqriqjBZ2duS0EEcTNsxRFUn50GKvMv+Vl6XB+azeR9X0CDT4pRwsdQk&#xA;4N68r0aI04KAsgqo3J57fJV2tfmVpdt+Z9l5G0ny/BqksvFL+dOCGB3HNjTgwYRRfG/3dRir0n9E&#xA;6V/yxQf8ik/piq6LTtPicSRWsMci/ZdY1BHyIGKuk03TpXMklrC7tuztGpJ+ZIxVb+idK/5YoP8A&#xA;kUn9MVeWf85B+eta8oWWhvpMdsTdPcJILmBJgFjWMjiG+z9rFWGWeu/85CyywM/liD6vIylnFhB9&#xA;gkVPXwxV9DfonSv+WKD/AJFJ/TFXfonSv+WKD/kUn9MVVJLKzlRI5YI3SMUjRkUhR02BG2KtQ6fY&#xA;QuJIbaKNx0dEVTv7gYqvS1to3d44kR5d5GVQC3+sR1xV43+QHnXU/O/6e/TttZP+j/qn1b0baOOn&#xA;retzrQb/AN0uKvXv0TpX/LFB/wAik/pirv0TpX/LFB/yKT+mKqkdlZxI8cUEaJIKSIqKAw6bgDfF&#xA;VP8AROlf8sUH/IpP6YqqrZ2iwmBYIxA32ogqhD81pTFXxl+VOqfmbYy6ovkS1NxPPHEt6yxJKUUF&#xA;vTI9TYblsVe6/kF+V2u+UodS1fzDSPVdUCItoGDmONSWYyMpKlnZug6U99lXruKuxV2KuxV2Kvm/&#xA;8pf/AFozzb/xm1b/AKjRir6QxV2KuxV2KuxV4v8A85OaHpDeVrPzE1wLPXNOuI4rCRah5g7cmiBG&#xA;9Up6intQ/wA2KoP/AJxi0nTLuz1jzZcXQvfMl5cvDdlv7yFGIlJNQN5nPIsNtqdQcVe6Yq7FXYq7&#xA;FXgH/OWv/HP8tf8AGa6/4jFiqG03/obH/Rf+WP8Ad/8AVn/utv8AZfZ+nFX0RirsVdirsVdir53/&#xA;AOcRv+mr/wC3f/2M4q+iMVdirsVdirsVfPn/ADi3oet6Zf8AmFtS0+5sllithGbmGSIMQ0lePMLW&#xA;lcVfQeKuxV2KuxV2KuxV8+flboet235/+ab+50+5gsZpdUMV1JDIkTh7wMvF2AU8huKHFX0HirsV&#xA;dirsVdir50uPX/OX83fq9GPkzyyT6lagSANQ/wCyuXSnb92viMVb1uKb8nPzZi1i0jZfJvmMlbmC&#xA;MHjHVgZEVR+1C7epHQfZJUd8VfRKOkiK6EMjgMrDcEHcEYq3irsVdirwz/nKTRtX1Ow8vLptjcXr&#xA;RS3JlFtE8pUMsdOXANStMVSvT/zw/OBWtrVvJlIgUiLm0vQQootetOmKvofFXYq7FXYq7FXyB+Wn&#xA;mL8y/IH6S/RvlW4uv0l6Pq/WbS6+H0PU48eATr6prXFX1F5F1vVtc8p6fqur2f1DUbpGa4tODx8C&#xA;sjKBxk+MVVQd8VT3FXYq7FXYq7FXYq7FXYq7FXYq7FXYq7FXYq7FXYq7FUPb/o/6xcfV/S+s1X61&#xA;6fHnWnw+pTfp0rirrr9H+pb/AFv0vU9X/RPV419Xif7vl+3x5dN6VxVEYq7FXYq7FXYq7FXYq7FX&#xA;Yq7FXYq7FXYq7FXYq7FXYq//2Q==</xapGImg:image>
               </rdf:li>
            </rdf:Alt>
         </xap:Thumbnails>
      </rdf:Description>
      <rdf:Description rdf:about=""
            xmlns:xapMM="http://ns.adobe.com/xap/1.0/mm/">
         <xapMM:DocumentID>uuid:41880D2238CDDB11844BDC1B3FC9DE7F</xapMM:DocumentID>
         <xapMM:InstanceID>uuid:42880D2238CDDB11844BDC1B3FC9DE7F</xapMM:InstanceID>
         <xapMM:DerivedFrom rdf:parseType="Resource">
         </xapMM:DerivedFrom>
      </rdf:Description>
   </rdf:RDF>
</x:xmpmeta>
                                                                                                    
                                                                                                    
                                                                                                    
                                                                                                    
                                                                                                    
                                                                                                    
                                                                                                    
                                                                                                    
                                                                                                    
                                                                                                    
                                                                                                    
                                                                                                    
                                                                                                    
                                                                                                    
                                                                                                    
                                                                                                    
                                                                                                    
                                                                                                    
                                                                                                    
                                                                                                    
                           
<?xpacket end="w"?>
	</metadata>
<g id="Solid_Boxes" i:layer="yes" i:editable="no" i:dimmedPercent="3" i:rgbTrio="#4F008000FFFF">
	<rect x="211.917" y="55.988" i:knockout="Off" fill="#87ADFF" width="73.478" height="73.478"/>
	<rect x="131.917" y="55.988" i:knockout="Off" fill="#94C2FF" width="73.478" height="73.478"/>
	<rect x="51.25" y="55.988" i:knockout="Off" fill="#A3D1FF" width="73.478" height="73.478"/>
	<rect x="291.916" y="55.988" i:knockout="Off" fill="#6690FF" width="73.479" height="73.478"/>
	<rect x="371.686" y="55.988" i:knockout="Off" fill="#4C70FF" width="73.477" height="73.478"/>
</g>
<g id="A_16ths" i:layer="yes" i:editable="no" i:dimmedPercent="3" i:rgbTrio="#FFFFFFFF4F00">
	<line i:knockout="Off" fill="none" stroke="#3567FF" stroke-width="0.5" x1="376.277" y1="55.988" x2="376.277" y2="129.466"/>
	<line i:knockout="Off" fill="none" stroke="#3567FF" stroke-width="0.5" x1="380.869" y1="55.988" x2="380.869" y2="129.466"/>
	<line i:knockout="Off" fill="none" stroke="#3567FF" stroke-width="0.5" x1="385.461" y1="55.988" x2="385.461" y2="129.466"/>
	<line i:knockout="Off" fill="none" stroke="#3567FF" stroke-width="0.5" x1="394.646" y1="55.988" x2="394.646" y2="129.466"/>
	<line i:knockout="Off" fill="none" stroke="#3567FF" stroke-width="0.5" x1="399.238" y1="55.988" x2="399.238" y2="129.466"/>
	<line i:knockout="Off" fill="none" stroke="#3567FF" stroke-width="0.5" x1="403.832" y1="55.988" x2="403.832" y2="129.466"/>
	<line i:knockout="Off" fill="none" stroke="#3567FF" stroke-width="0.5" x1="413.016" y1="55.988" x2="413.016" y2="129.466"/>
	<line i:knockout="Off" fill="none" stroke="#3567FF" stroke-width="0.5" x1="417.607" y1="55.988" x2="417.607" y2="129.466"/>
	<line i:knockout="Off" fill="none" stroke="#3567FF" stroke-width="0.5" x1="422.201" y1="55.988" x2="422.201" y2="129.466"/>
	<line i:knockout="Off" fill="none" stroke="#3567FF" stroke-width="0.5" x1="431.385" y1="55.988" x2="431.385" y2="129.466"/>
	<line i:knockout="Off" fill="none" stroke="#3567FF" stroke-width="0.5" x1="435.979" y1="55.988" x2="435.979" y2="129.466"/>
	<line i:knockout="Off" fill="none" stroke="#3567FF" stroke-width="0.5" x1="440.57" y1="55.988" x2="440.57" y2="129.466"/>
	<line i:knockout="Off" fill="none" stroke="#3567FF" stroke-width="0.5" x1="371.686" y1="124.874" x2="445.162" y2="124.874"/>
	<line i:knockout="Off" fill="none" stroke="#3567FF" stroke-width="0.5" x1="371.686" y1="120.281" x2="445.162" y2="120.281"/>
	<line i:knockout="Off" fill="none" stroke="#3567FF" stroke-width="0.5" x1="371.686" y1="115.688" x2="445.162" y2="115.688"/>
	<line i:knockout="Off" fill="none" stroke="#3567FF" stroke-width="0.5" x1="371.686" y1="106.503" x2="445.162" y2="106.503"/>
	<line i:knockout="Off" fill="none" stroke="#3567FF" stroke-width="0.5" x1="371.686" y1="101.912" x2="445.162" y2="101.912"/>
	<line i:knockout="Off" fill="none" stroke="#3567FF" stroke-width="0.5" x1="371.686" y1="97.319" x2="445.162" y2="97.319"/>
	<line i:knockout="Off" fill="none" stroke="#3567FF" stroke-width="0.5" x1="371.686" y1="88.135" x2="445.162" y2="88.135"/>
	<line i:knockout="Off" fill="none" stroke="#3567FF" stroke-width="0.5" x1="371.686" y1="83.542" x2="445.162" y2="83.542"/>
	<line i:knockout="Off" fill="none" stroke="#3567FF" stroke-width="0.5" x1="371.686" y1="78.95" x2="445.162" y2="78.95"/>
	<line i:knockout="Off" fill="none" stroke="#3567FF" stroke-width="0.5" x1="371.686" y1="69.765" x2="445.162" y2="69.765"/>
	<line i:knockout="Off" fill="none" stroke="#3567FF" stroke-width="0.5" x1="371.686" y1="65.173" x2="445.162" y2="65.173"/>
	<line i:knockout="Off" fill="none" stroke="#3567FF" stroke-width="0.5" x1="371.686" y1="60.58" x2="445.162" y2="60.58"/>
</g>
<g id="A_Quarters" i:layer="yes" i:editable="no" i:dimmedPercent="3" i:rgbTrio="#4F004F00FFFF">
	<line i:knockout="Off" fill="none" stroke="#255DEE" stroke-width="0.5" x1="371.686" y1="74.358" x2="445.162" y2="74.358"/>
	<line i:knockout="Off" fill="none" stroke="#255DEE" stroke-width="0.5" x1="371.686" y1="111.096" x2="445.162" y2="111.096"/>
	<line i:knockout="Off" fill="none" stroke="#255DEE" stroke-width="0.5" x1="390.055" y1="55.988" x2="390.055" y2="129.466"/>
	<line i:knockout="Off" fill="none" stroke="#255DEE" stroke-width="0.5" x1="426.793" y1="55.988" x2="426.793" y2="129.466"/>
</g>
<g id="A_Halves" i:layer="yes" i:editable="no" i:dimmedPercent="3" i:rgbTrio="#4F00FFFF4F00">
	<line i:knockout="Off" fill="none" stroke="#1250DA" stroke-width="0.5" x1="408.424" y1="55.988" x2="408.424" y2="129.466"/>
	<line i:knockout="Off" fill="none" stroke="#1250DA" stroke-width="0.5" x1="371.686" y1="92.727" x2="445.162" y2="92.727"/>
</g>
<g id="H_8ths" i:layer="yes" i:editable="no" i:dimmedPercent="3" i:rgbTrio="#FFFFFFFF4F00">
	<line i:knockout="Off" fill="none" stroke="#477EFF" stroke-width="0.5" x1="301.102" y1="55.988" x2="301.102" y2="129.466"/>
	<line i:knockout="Off" fill="none" stroke="#477EFF" stroke-width="0.5" x1="319.471" y1="55.988" x2="319.471" y2="129.466"/>
	<line i:knockout="Off" fill="none" stroke="#477EFF" stroke-width="0.5" x1="337.84" y1="55.988" x2="337.84" y2="129.466"/>
	<line i:knockout="Off" fill="none" stroke="#477EFF" stroke-width="0.5" x1="356.209" y1="55.988" x2="356.209" y2="129.466"/>
	<line i:knockout="Off" fill="none" stroke="#477EFF" stroke-width="0.5" x1="291.916" y1="120.281" x2="365.395" y2="120.281"/>
	<line i:knockout="Off" fill="none" stroke="#477EFF" stroke-width="0.5" x1="291.916" y1="101.912" x2="365.395" y2="101.912"/>
	<line i:knockout="Off" fill="none" stroke="#477EFF" stroke-width="0.5" x1="291.916" y1="83.542" x2="365.395" y2="83.542"/>
	<line i:knockout="Off" fill="none" stroke="#477EFF" stroke-width="0.5" x1="291.916" y1="65.173" x2="365.395" y2="65.173"/>
</g>
<g id="H_Quarters" i:layer="yes" i:editable="no" i:dimmedPercent="3" i:rgbTrio="#4F004F00FFFF">
	<line i:knockout="Off" fill="none" stroke="#326DEE" stroke-width="0.5" x1="291.916" y1="74.358" x2="365.395" y2="74.358"/>
	<line i:knockout="Off" fill="none" stroke="#326DEE" stroke-width="0.5" x1="291.916" y1="111.096" x2="365.395" y2="111.096"/>
	<line i:knockout="Off" fill="none" stroke="#326DEE" stroke-width="0.5" x1="310.286" y1="55.988" x2="310.286" y2="129.466"/>
	<line i:knockout="Off" fill="none" stroke="#326DEE" stroke-width="0.5" x1="347.024" y1="55.988" x2="347.024" y2="129.466"/>
</g>
<g id="H_Halves" i:layer="yes" i:editable="no" i:dimmedPercent="3" i:rgbTrio="#4F00FFFF4F00">
	<line i:knockout="Off" fill="none" stroke="#1958DA" stroke-width="0.5" x1="328.655" y1="55.988" x2="328.655" y2="129.466"/>
	<line i:knockout="Off" fill="none" stroke="#1958DA" stroke-width="0.5" x1="291.916" y1="92.727" x2="365.395" y2="92.727"/>
</g>
<g id="P_Quarters" i:layer="yes" i:editable="no" i:dimmedPercent="3" i:rgbTrio="#4F00FFFF4F00">
	<line i:knockout="Off" fill="none" stroke="#5E8EEE" stroke-width="0.5" x1="211.917" y1="74.358" x2="285.395" y2="74.358"/>
	<line i:knockout="Off" fill="none" stroke="#5E8EEE" stroke-width="0.5" x1="211.917" y1="111.096" x2="285.395" y2="111.096"/>
	<line i:knockout="Off" fill="none" stroke="#5E8EEE" stroke-width="0.5" x1="230.286" y1="55.988" x2="230.286" y2="129.466"/>
	<line i:knockout="Off" fill="none" stroke="#5E8EEE" stroke-width="0.5" x1="267.024" y1="55.988" x2="267.024" y2="129.466"/>
</g>
<g id="P_Halves" i:layer="yes" i:editable="no" i:dimmedPercent="3" i:rgbTrio="#FFFF4F004F00">
	<line i:knockout="Off" fill="none" stroke="#2F69DA" stroke-width="0.5" x1="248.655" y1="55.988" x2="248.655" y2="129.466"/>
	<line i:knockout="Off" fill="none" stroke="#2F69DA" stroke-width="0.5" x1="211.917" y1="92.727" x2="285.395" y2="92.727"/>
</g>
<g id="L_Halves" i:layer="yes" i:editable="no" i:dimmedPercent="3" i:rgbTrio="#FFFF4F004F00">
	<line i:knockout="Off" fill="none" stroke="#4A83E3" stroke-width="0.5" x1="168.655" y1="55.988" x2="168.655" y2="129.466"/>
	<line i:knockout="Off" fill="none" stroke="#4A83E3" stroke-width="0.5" x1="131.917" y1="92.727" x2="205.394" y2="92.727"/>
</g>
<g id="Alpha_White_Fills__x0028_Myriad_x0029_" i:layer="yes" i:editable="no" i:dimmedPercent="3" i:rgbTrio="#800080008000">
	<path i:knockout="Off" fill="#FFFFFF" d="M120.966,128.889l-11.095-32.514l-0.144-0.423h-0.447h-4.987h-0.448l-0.144,0.424
		L92.654,128.89l-0.281,0.826h0.873h4.275h0.452l0.142-0.429l3.354-10.141h10.453l3.446,10.146l0.144,0.424h0.448h4.417h0.874
		L120.966,128.889z M105.597,106.229c0.372-1.17,0.725-2.419,1.061-3.722c0.315,1.2,0.658,2.439,1.077,3.759
		c0.004,0.012,2.12,6.139,2.901,8.4h-7.894L105.597,106.229z"/>
	<polygon i:knockout="Off" fill="#FFFFFF" points="198.637,124.498 185.583,124.498 185.583,96.576 185.583,95.951 184.958,95.951 
		180.777,95.951 180.152,95.951 180.152,96.576 180.152,129.091 180.152,129.716 180.777,129.716 198.637,129.716 199.262,129.716 
		199.262,129.091 199.262,125.123 199.262,124.498 	"/>
	<g>
		<path i:knockout="Off" fill="#FFFFFF" d="M275.563,98.526c-2.07-1.863-5.231-2.813-9.386-2.813c-2.985,0-5.693,0.228-8.05,0.676
			l-0.508,0.097v0.517v32.087v0.625h0.625h4.133h0.625v-0.625v-12.568c0.867,0.13,1.801,0.153,2.699,0.153
			c4.357,0,7.994-1.318,10.241-3.712c1.778-1.778,2.687-4.228,2.687-7.268C278.629,102.782,277.54,100.236,275.563,98.526z
			 M263.002,100.473c0.668-0.104,1.788-0.232,3.27-0.232c2.588,0,6.928,0.74,6.928,5.692c0,3.92-2.698,6.168-7.402,6.168
			c-1.129,0-2.059-0.074-2.795-0.215V100.473z"/>
	</g>
	<polygon i:knockout="Off" fill="#FFFFFF" points="360.229,95.951 356.049,95.951 355.424,95.951 355.424,96.576 355.424,109.346 
		341.188,109.346 341.188,96.576 341.188,95.951 340.563,95.951 336.384,95.951 335.759,95.951 335.759,96.576 335.759,129.091 
		335.759,129.716 336.384,129.716 340.563,129.716 341.188,129.716 341.188,129.091 341.188,114.206 355.424,114.206 
		355.424,129.091 355.424,129.716 356.049,129.716 360.229,129.716 360.854,129.716 360.854,129.091 360.854,96.576 360.854,95.951 
			"/>
	<g>
		<path i:knockout="Off" fill="#FFFFFF" d="M442.529,128.889l-11.094-32.514l-0.145-0.423h-0.447h-4.988h-0.447l-0.145,0.424
			l-11.047,32.515l-0.281,0.826h0.873h4.275h0.451l0.143-0.429l3.352-10.141h10.453l3.447,10.146l0.143,0.424h0.449h4.416h0.875
			L442.529,128.889z M427.16,106.229c0.371-1.17,0.725-2.419,1.061-3.722c0.316,1.201,0.656,2.44,1.076,3.759
			c0.004,0.012,2.121,6.139,2.902,8.4h-7.895L427.16,106.229z"/>
	</g>
</g>
<g id="Pixel__x0028_Centry_x002F_Orator_x0029_" i:layer="yes" i:editable="no" i:dimmedPercent="3" i:rgbTrio="#4F00FFFFFFFF">
	<path i:knockout="Off" fill="#333333" d="M51.24,133.708h6.393c3.458,0,5.951,0.319,7.479,0.958s2.733,1.671,3.616,3.099
		s1.324,3.139,1.324,5.133c0,2.21-0.579,4.047-1.736,5.51c-1.158,1.464-2.729,2.482-4.713,3.056
		c-1.165,0.33-3.286,0.495-6.363,0.495v13.375h-6V133.708z M57.24,146.083h1.929c1.517,0,2.571-0.107,3.164-0.323
		c0.592-0.216,1.058-0.572,1.397-1.069c0.34-0.496,0.51-1.098,0.51-1.804c0-1.223-0.478-2.115-1.431-2.678
		c-0.693-0.417-1.979-0.626-3.857-0.626H57.24V146.083z"/>
	<path i:knockout="Off" fill="#333333" d="M139.039,133.708h6v31.625h-6V133.708z"/>
	<path i:knockout="Off" fill="#333333" d="M291.803,133.708h17.313v5.813h-11.313v5.75h11.313v5.813h-11.313v8.313h11.313v5.938
		h-17.313V133.708z"/>
	<path i:knockout="Off" fill="#333333" d="M371.578,133.708h6v25.875h8.875v5.75h-14.875V133.708z"/>
	<path i:knockout="Off" fill="#333333" stroke="#333333" stroke-width="2" d="M215.826,166.572l-3.3-1.232l9.569-15.312
		l-7.864-12.584l3.409-1.364l6.271,10.956l6.27-10.956l3.41,1.364l-7.865,12.584l9.57,15.312l-3.3,1.232l-8.03-13.42
		L215.826,166.572z"/>
</g>
<g id="Alpha_Outlines" i:layer="yes" i:editable="no" i:dimmedPercent="3" i:rgbTrio="#800080008000">
	<path i:knockout="Off" d="M111.92,119.146h-10.453l-3.354,10.141l-0.142,0.429h17.538l-0.144-0.424L111.92,119.146z
		 M98.932,129.216l0.064-0.194c0,0,2.36-7.146,3.013-9.125h9.374l3.104,9.137l0.062,0.183H98.932z M51,55.738v73.978h41.373
		l0.281-0.826l11.047-32.515l0.144-0.424h5.882l0.144,0.423l11.095,32.514l0.282,0.827h3.729V55.738H51z M124.478,129.216h-2.606
		l-0.083-0.242l-0.282-0.827l-10.925-32.014c0,0-0.144-0.423-0.144-0.423l-0.173-0.508h-6.957l-0.173,0.509l-0.144,0.424
		l-10.877,32.015l-0.281,0.826l-0.082,0.241H51.5V56.238h72.978V129.216z M106.658,102.507c-0.336,1.302-0.689,2.551-1.061,3.722
		l-2.855,8.438h7.894c-0.781-2.262-2.897-8.388-2.901-8.4C107.315,104.946,106.973,103.707,106.658,102.507z M109.583,113.916
		h-5.796c0.752-2.222,2.521-7.45,2.525-7.46c0.115-0.363,0.23-0.76,0.345-1.149c0.114,0.384,0.233,0.779,0.363,1.186
		c0.005,0.016,0.006,0.02,2.319,6.717L109.583,113.916z"/>
	<path i:knockout="Off" d="M131.667,55.738v73.978h48.486V95.951h5.43v28.547h13.68v5.218h6.382V55.738H131.667z M205.144,129.216
		h-5.132v-5.468h-13.68V95.201h-6.93v34.015h-47.236V56.238h72.978V129.216z"/>
	<path i:knockout="Off" d="M273.199,105.934c0-4.953-4.34-5.692-6.928-5.692c-1.481,0-2.602,0.128-3.27,0.232v11.414
		c0.736,0.141,1.666,0.215,2.795,0.215C270.501,112.102,273.199,109.854,273.199,105.934z M263.752,101.13
		c0.639-0.074,1.484-0.139,2.52-0.139c2.818,0,6.178,0.857,6.178,4.942c0,3.494-2.362,5.418-6.652,5.418
		c-0.775,0-1.458-0.037-2.045-0.109V101.13z M211.667,55.738v73.978h45.953V96.486l0.508-0.097c2.356-0.449,5.064-0.676,8.05-0.676
		c4.154,0,7.315,0.949,9.386,2.813c1.978,1.71,3.066,4.256,3.066,7.17c0,3.04-0.908,5.49-2.687,7.268
		c-2.247,2.394-5.884,3.712-10.241,3.712c-0.898,0-1.832-0.023-2.699-0.153v13.193h22.643V55.738H211.667z M285.145,129.216h-21.393
		v-11.872c0.676,0.056,1.35,0.082,1.949,0.082c4.566,0,8.396-1.402,10.788-3.949c1.911-1.91,2.89-4.534,2.89-7.781
		c0-3.135-1.182-5.882-3.314-7.728c-2.216-1.994-5.543-3.005-9.888-3.005c-3.032,0-5.788,0.232-8.189,0.689l-0.509,0.097
		l-0.609,0.116v33.35h-44.703V56.238h72.978V129.216z"/>
	<path i:knockout="Off" d="M341.188,129.716h14.235v-15.51h-14.235V129.716z M341.938,114.956h12.735v14.26h-12.735V114.956z
		 M291.666,55.738v73.978h44.093V95.951h5.43v13.395h14.235V95.951h5.43v33.765h4.791V55.738H291.666z M365.145,129.216h-3.541
		V95.201h-6.93v13.395h-12.735V95.201h-6.93v34.015h-42.843V56.238h72.979V129.216z"/>
	<path i:knockout="Off" d="M428.221,102.506c-0.336,1.303-0.689,2.552-1.061,3.722l-2.855,8.438h7.895
		c-0.781-2.262-2.898-8.388-2.902-8.4C428.877,104.946,428.537,103.707,428.221,102.506z M431.146,113.916h-5.797
		c0.752-2.222,2.521-7.45,2.525-7.461c0.115-0.364,0.23-0.761,0.344-1.148c0.115,0.386,0.234,0.78,0.363,1.187
		c0.006,0.015,0.006,0.017,1.518,4.396L431.146,113.916z M371.436,55.738v73.978h42.5l0.281-0.826l11.047-32.515l0.145-0.424h5.883
		l0.145,0.423l11.094,32.514l0.283,0.827h2.6V55.738H371.436z M444.912,129.216h-1.477l-0.084-0.243l-0.283-0.826l-10.924-32.014
		L432,95.709l-0.174-0.508h-6.957l-0.172,0.509l-0.143,0.424l-10.879,32.014l-0.279,0.826l-0.082,0.241h-41.379V56.238h72.977
		V129.216z M433.482,119.146h-10.453l-3.352,10.141l-0.143,0.429h17.537l-0.143-0.424L433.482,119.146z M420.494,129.216
		l0.064-0.192c0-0.002,2.359-7.148,3.014-9.127h9.373l3.104,9.137l0.063,0.183H420.494z"/>
</g>
</svg>
